<svg width="22" height="21" viewBox="0 0 22 21" fill="none" xmlns="http://www.w3.org/2000/svg">
<path d="M2.86522 6.49888C3.1074 6.25472 3.50166 6.2531 3.74582 6.49528L10.9297 13.6206C11.1739 13.8628 11.1755 14.2571 10.9333 14.5012C10.6911 14.7454 10.2969 14.747 10.0527 14.5048L2.86882 7.37949C2.62466 7.13731 2.62304 6.74305 2.86522 6.49888Z" fill="#43E8FF"/>
<path d="M18.162 6.49888C17.9198 6.25472 17.5256 6.2531 17.2814 6.49528L10.0975 13.6206C9.85335 13.8628 9.85174 14.2571 10.0939 14.5012C10.3361 14.7454 10.7304 14.747 10.9745 14.5048L18.1584 7.37949C18.4026 7.13731 18.4042 6.74305 18.162 6.49888Z" fill="#43E8FF"/>
</svg>
